<svg width="100" height="100" viewBox="0 0 100 100" fill="none" xmlns="http://www.w3.org/2000/svg">
<rect width="100" height="100" rx="50" fill="white"/>
<rect x="1" y="1" width="98" height="98" rx="49" stroke="#5461FF" stroke-opacity="0.4" stroke-width="2" stroke-dasharray="10.23 10.23"/>
<circle cx="94.8871" cy="31.2501" r="5.11364" fill="#5461FF"/>
<path d="M32.8125 59.375V39.0625C32.8125 38.2337 33.1417 37.4388 33.7278 36.8528C34.3138 36.2667 35.1087 35.9375 35.9375 35.9375H64.0625C64.8913 35.9375 65.6862 36.2667 66.2722 36.8528C66.8583 37.4388 67.1875 38.2337 67.1875 39.0625V59.375" stroke="#181B38" stroke-width="2.27273" stroke-linecap="round" stroke-linejoin="round"/>
<path d="M29.6875 59.375H70.3125V62.5C70.3125 63.3288 69.9833 64.1237 69.3972 64.7097C68.8112 65.2958 68.0163 65.625 67.1875 65.625H32.8125C31.9837 65.625 31.1888 65.2958 30.6028 64.7097C30.0167 64.1237 29.6875 63.3288 29.6875 62.5V59.375Z" stroke="#181B38" stroke-width="2.27273" stroke-linecap="round" stroke-linejoin="round"/>
<path d="M53.125 42.1875H46.875" stroke="#181B38" stroke-width="2.27273" stroke-linecap="round" stroke-linejoin="round"/>
</svg>
