<svg width="63" height="63" viewBox="0 0 63 63" fill="none" xmlns="http://www.w3.org/2000/svg">
<path d="M52.7344 17.5781H9.76562C8.68694 17.5781 7.8125 18.4526 7.8125 19.5312V50.7812C7.8125 51.8599 8.68694 52.7344 9.76562 52.7344H52.7344C53.8131 52.7344 54.6875 51.8599 54.6875 50.7812V19.5312C54.6875 18.4526 53.8131 17.5781 52.7344 17.5781Z" stroke="white" stroke-width="3" stroke-linecap="round" stroke-linejoin="round"/>
<path d="M41.0156 17.5781V13.6719C41.0156 12.6359 40.6041 11.6423 39.8715 10.9097C39.1389 10.1772 38.1454 9.76563 37.1094 9.76562H25.3906C24.3546 9.76563 23.3611 10.1772 22.6285 10.9097C21.8959 11.6423 21.4844 12.6359 21.4844 13.6719V17.5781" stroke="white" stroke-width="3" stroke-linecap="round" stroke-linejoin="round"/>
<path d="M54.6875 30.8348C47.5642 34.9545 39.4788 37.119 31.25 37.1093C23.0197 37.1307 14.9313 34.9654 7.8125 30.8348" stroke="white" stroke-width="3" stroke-linecap="round" stroke-linejoin="round"/>
<path d="M28.3203 29.2969H34.1797" stroke="white" stroke-width="3" stroke-linecap="round" stroke-linejoin="round"/>
</svg>
