<svg width="17" height="17" viewBox="0 0 17 17" fill="none" xmlns="http://www.w3.org/2000/svg">
<path d="M14.3438 4.78125H2.65625C2.36285 4.78125 2.125 5.0191 2.125 5.3125V13.8125C2.125 14.1059 2.36285 14.3438 2.65625 14.3438H14.3438C14.6372 14.3438 14.875 14.1059 14.875 13.8125V5.3125C14.875 5.0191 14.6372 4.78125 14.3438 4.78125Z" stroke="#757678" stroke-width="0.8" stroke-linecap="round" stroke-linejoin="round"/>
<path d="M11.1562 4.78125V3.71875C11.1562 3.43696 11.0443 3.16671 10.8451 2.96745C10.6458 2.76819 10.3755 2.65625 10.0938 2.65625H6.90625C6.62446 2.65625 6.35421 2.76819 6.15495 2.96745C5.95569 3.16671 5.84375 3.43696 5.84375 3.71875V4.78125" stroke="#757678" stroke-width="0.8" stroke-linecap="round" stroke-linejoin="round"/>
<path d="M14.875 8.38708C12.9375 9.50764 10.7382 10.0964 8.5 10.0937C6.26135 10.0996 4.06132 9.51059 2.125 8.38708" stroke="#757678" stroke-width="0.8" stroke-linecap="round" stroke-linejoin="round"/>
<path d="M7.70312 7.96875H9.29688" stroke="#757678" stroke-width="0.8" stroke-linecap="round" stroke-linejoin="round"/>
</svg>
