<svg width="62" height="62" viewBox="0 0 62 62" fill="none" xmlns="http://www.w3.org/2000/svg">
<path d="M31 17.4375V21.3125" stroke="white" stroke-width="3" stroke-linecap="round" stroke-linejoin="round"/>
<path d="M31 40.6875V44.5625" stroke="white" stroke-width="3" stroke-linecap="round" stroke-linejoin="round"/>
<path d="M31 54.25C43.8406 54.25 54.25 43.8406 54.25 31C54.25 18.1594 43.8406 7.75 31 7.75C18.1594 7.75 7.75 18.1594 7.75 31C7.75 43.8406 18.1594 54.25 31 54.25Z" stroke="white" stroke-width="3" stroke-linecap="round" stroke-linejoin="round"/>
<path d="M25.1875 40.6875H33.9062C35.1909 40.6875 36.4229 40.1772 37.3313 39.2688C38.2397 38.3604 38.75 37.1284 38.75 35.8438C38.75 34.5591 38.2397 33.3271 37.3313 32.4187C36.4229 31.5103 35.1909 31 33.9062 31H28.0938C26.8091 31 25.5771 30.4897 24.6687 29.5813C23.7603 28.6729 23.25 27.4409 23.25 26.1562C23.25 24.8716 23.7603 23.6396 24.6687 22.7312C25.5771 21.8228 26.8091 21.3125 28.0938 21.3125H36.8125" stroke="white" stroke-width="3" stroke-linecap="round" stroke-linejoin="round"/>
</svg>
