<svg width="14" height="10" viewBox="0 0 14 10" fill="none" xmlns="http://www.w3.org/2000/svg">
<path d="M12.7695 0.203857H1.23047C0.551988 0.203857 0 0.755846 0 1.43433V8.56508C0 9.24356 0.551988 9.79555 1.23047 9.79555H12.7695C13.448 9.79555 14 9.24356 14 8.56508V1.43433C14 0.755846 13.448 0.203857 12.7695 0.203857ZM12.6089 1.02417L12.4447 1.16092L7.48819 5.28821C7.2053 5.52375 6.79465 5.52375 6.5118 5.28821L1.55529 1.16092L1.39106 1.02417H12.6089ZM0.820312 1.61638L4.85877 4.9792L0.820312 7.6669V1.61638ZM12.7695 8.97524H1.23047C1.03228 8.97524 0.866523 8.83393 0.828543 8.64682L5.51649 5.52687L5.98691 5.91859C6.28042 6.16299 6.64024 6.28519 7.00003 6.28519C7.35982 6.28519 7.7196 6.16299 8.01314 5.91859L8.48356 5.52687L13.1715 8.64679C13.1335 8.83396 12.9677 8.97524 12.7695 8.97524ZM13.1797 7.6669L9.14123 4.97922L13.1797 1.61638V7.6669Z" fill="#757678"/>
</svg>
