<svg width="62" height="62" viewBox="0 0 62 62" fill="none" xmlns="http://www.w3.org/2000/svg">
<path d="M36.8125 7.75V21.3125H50.375" stroke="white" stroke-width="3" stroke-linecap="round" stroke-linejoin="round"/>
<path d="M35.8438 31L41.6562 36.8125L35.8438 42.625" stroke="white" stroke-width="3" stroke-linecap="round" stroke-linejoin="round"/>
<path d="M26.1562 31L20.3438 36.8125L26.1562 42.625" stroke="white" stroke-width="3" stroke-linecap="round" stroke-linejoin="round"/>
<path d="M48.4375 54.25C48.9514 54.25 49.4442 54.0459 49.8075 53.6825C50.1709 53.3192 50.375 52.8264 50.375 52.3125V21.3125L36.8125 7.75H13.5625C13.0486 7.75 12.5558 7.95413 12.1925 8.31748C11.8291 8.68083 11.625 9.17364 11.625 9.6875V52.3125C11.625 52.8264 11.8291 53.3192 12.1925 53.6825C12.5558 54.0459 13.0486 54.25 13.5625 54.25H48.4375Z" stroke="white" stroke-width="3" stroke-linecap="round" stroke-linejoin="round"/>
</svg>
