<svg width="101" height="100" viewBox="0 0 101 100" fill="none" xmlns="http://www.w3.org/2000/svg">
<rect x="1.5" y="1" width="98" height="98" rx="49" stroke="#5461FF" stroke-opacity="0.4" stroke-width="2" stroke-dasharray="10.23 10.23"/>
<circle cx="95.3871" cy="31.2501" r="5.11364" fill="#5461FF"/>
<path d="M50 57.75C54.1421 57.75 57.5 54.3921 57.5 50.25C57.5 46.1079 54.1421 42.75 50 42.75C45.8579 42.75 42.5 46.1079 42.5 50.25C42.5 54.3921 45.8579 57.75 50 57.75Z" stroke="white" stroke-width="3" stroke-linecap="round" stroke-linejoin="round"/>
<path d="M39.2002 64.5001C40.188 62.4771 41.7241 60.7723 43.6335 59.5797C45.543 58.3872 47.749 57.7549 50.0002 57.7549C52.2514 57.7549 54.4574 58.3872 56.3669 59.5797C58.2763 60.7723 59.8124 62.4771 60.8002 64.5001" stroke="white" stroke-width="3" stroke-linecap="round" stroke-linejoin="round"/>
<path d="M64.3438 45.8625C67.2958 46.2873 69.9591 47.8651 71.75 50.25" stroke="white" stroke-width="3" stroke-linecap="round" stroke-linejoin="round"/>
<path d="M57.3311 37.1626C57.7667 36.2534 58.4244 35.4686 59.2434 34.8807C60.0625 34.2929 61.0164 33.9209 62.0172 33.7991C63.018 33.6773 64.0334 33.8096 64.9695 34.1839C65.9056 34.5582 66.7324 35.1623 67.3733 35.9405C68.0143 36.7187 68.4488 37.6459 68.6368 38.6364C68.8248 39.6269 68.7602 40.6488 68.4489 41.6077C68.1376 42.5666 67.5897 43.4316 66.8558 44.1229C66.1219 44.8141 65.2256 45.3092 64.2498 45.5626" stroke="white" stroke-width="3" stroke-linecap="round" stroke-linejoin="round"/>
<path d="M35.75 45.5626C34.7742 45.3092 33.878 44.8141 33.1441 44.1229C32.4102 43.4316 31.8623 42.5666 31.551 41.6077C31.2397 40.6488 31.1751 39.6269 31.363 38.6364C31.551 37.6459 31.9856 36.7187 32.6265 35.9405C33.2675 35.1623 34.0942 34.5582 35.0304 34.1839C35.9665 33.8096 36.9818 33.6773 37.9826 33.7991C38.9834 33.9209 39.9374 34.2929 40.7564 34.8807C41.5755 35.4686 42.2332 36.2534 42.6688 37.1626" stroke="white" stroke-width="3" stroke-linecap="round" stroke-linejoin="round"/>
<path d="M28.25 50.25C30.0409 47.8651 32.7042 46.2873 35.6562 45.8625" stroke="white" stroke-width="3" stroke-linecap="round" stroke-linejoin="round"/>
</svg>
