<svg width="62" height="62" viewBox="0 0 62 62" fill="none" xmlns="http://www.w3.org/2000/svg">
<path d="M31 42.625C37.4203 42.625 42.625 37.4203 42.625 31C42.625 24.5797 37.4203 19.375 31 19.375C24.5797 19.375 19.375 24.5797 19.375 31C19.375 37.4203 24.5797 42.625 31 42.625Z" stroke="white" stroke-width="3" stroke-linecap="round" stroke-linejoin="round"/>
<path d="M47.8085 19.5447C48.3915 20.3795 48.902 21.2626 49.3342 22.1845L55.6069 25.672C56.3901 29.1801 56.3984 32.8168 55.6311 36.3283L49.3342 39.8158C48.902 40.7377 48.3915 41.6209 47.8085 42.4556L47.9296 49.6486C45.2712 52.0711 42.1249 53.8961 38.7022 55.001L32.5264 51.2955C31.5105 51.3682 30.4908 51.3682 29.4749 51.2955L23.3233 54.9767C19.8898 53.892 16.7331 52.074 14.0717 49.6486L14.1928 42.4799C13.6147 41.6335 13.1045 40.7427 12.6671 39.8158L6.3944 36.3283C5.61116 32.8203 5.6029 29.1836 6.37018 25.672L12.6671 22.1845C13.0993 21.2626 13.6098 20.3795 14.1928 19.5447L14.0717 12.3517C16.7301 9.92929 19.8764 8.10425 23.2991 6.99939L29.4749 10.7049C30.4908 10.6322 31.5105 10.6322 32.5264 10.7049L38.678 7.02361C42.1115 8.10836 45.2682 9.92635 47.9296 12.3517L47.8085 19.5447Z" stroke="white" stroke-width="3" stroke-linecap="round" stroke-linejoin="round"/>
</svg>
