<svg width="100" height="100" viewBox="0 0 100 100" fill="none" xmlns="http://www.w3.org/2000/svg">
<rect width="100" height="100" rx="50" fill="white"/>
<rect x="1" y="1" width="98" height="98" rx="49" stroke="#5461FF" stroke-opacity="0.4" stroke-width="2" stroke-dasharray="10.23 10.23"/>
<circle cx="72.1586" cy="6.25011" r="5.11364" fill="#5461FF"/>
<path d="M42.543 69.3892H57.4577" stroke="#181B38" stroke-width="2.27273" stroke-linecap="round" stroke-linejoin="round"/>
<path d="M50 63.4233V52.9829" stroke="#181B38" stroke-width="2.27273" stroke-linecap="round" stroke-linejoin="round"/>
<path d="M44.0332 47.0171L49.9991 52.983L55.965 47.0171" stroke="#181B38" stroke-width="2.27273" stroke-linecap="round" stroke-linejoin="round"/>
<path d="M40.8096 57.2708C39.034 55.8901 37.5959 54.1235 36.6043 52.1047C35.6126 50.0859 35.0935 47.8678 35.0861 45.6186C35.0488 37.5274 41.5554 30.7971 49.6466 30.6106C52.7781 30.5364 55.8535 31.45 58.4366 33.2218C61.0197 34.9936 62.9794 37.5337 64.0377 40.4818C65.0961 43.43 65.1994 46.6365 64.333 49.6466C63.4666 52.6568 61.6744 55.3178 59.2107 57.2521C58.6665 57.6728 58.2257 58.2124 57.9219 58.8296C57.6182 59.4467 57.4596 60.1252 57.4583 60.813V61.9317C57.4583 62.3272 57.3011 62.7066 57.0214 62.9863C56.7417 63.266 56.3623 63.4231 55.9668 63.4231H44.035C43.6394 63.4231 43.26 63.266 42.9803 62.9863C42.7006 62.7066 42.5435 62.3272 42.5435 61.9317V60.813C42.5388 60.1303 42.3805 59.4575 42.0804 58.8443C41.7803 58.2311 41.3459 57.6933 40.8096 57.2708V57.2708Z" stroke="#181B38" stroke-width="2.27273" stroke-linecap="round" stroke-linejoin="round"/>
</svg>
