<svg width="101" height="100" viewBox="0 0 101 100" fill="none" xmlns="http://www.w3.org/2000/svg">
<rect x="1.5" y="1" width="98" height="98" rx="49" stroke="#5461FF" stroke-opacity="0.4" stroke-width="2" stroke-dasharray="10.23 10.23"/>
<circle cx="72.6586" cy="6.25011" r="5.11364" fill="#5461FF"/>
<path d="M50.5 42.5C50.5 40.9087 51.1321 39.3826 52.2574 38.2574C53.3826 37.1321 54.9087 36.5 56.5 36.5H68.5C68.8978 36.5 69.2794 36.658 69.5607 36.9393C69.842 37.2206 70 37.6022 70 38V62C70 62.3978 69.842 62.7794 69.5607 63.0607C69.2794 63.342 68.8978 63.5 68.5 63.5H56.5C54.9087 63.5 53.3826 64.1321 52.2574 65.2574C51.1321 66.3826 50.5 67.9087 50.5 69.5" stroke="white" stroke-width="3" stroke-linecap="round" stroke-linejoin="round"/>
<path d="M31 62C31 62.3978 31.158 62.7794 31.4393 63.0607C31.7206 63.342 32.1022 63.5 32.5 63.5H44.5C46.0913 63.5 47.6174 64.1321 48.7426 65.2574C49.8679 66.3826 50.5 67.9087 50.5 69.5V42.5C50.5 40.9087 49.8679 39.3826 48.7426 38.2574C47.6174 37.1321 46.0913 36.5 44.5 36.5H32.5C32.1022 36.5 31.7206 36.658 31.4393 36.9393C31.158 37.2206 31 37.6022 31 38V62Z" stroke="white" stroke-width="3" stroke-linecap="round" stroke-linejoin="round"/>
</svg>
