<svg width="14" height="14" viewBox="0 0 14 14" fill="none" xmlns="http://www.w3.org/2000/svg">
<path d="M11.9498 9.04975C11.1873 8.28735 10.2799 7.72294 9.28974 7.38128C10.3502 6.65091 11.0469 5.42856 11.0469 4.04639C11.0469 1.81495 9.23144 -0.000488281 7 -0.000488281C4.76856 -0.000488281 2.95312 1.81495 2.95312 4.04639C2.95312 5.42856 3.64982 6.65091 4.71029 7.38128C3.72017 7.72294 2.81269 8.28735 2.05026 9.04975C0.728137 10.3719 0 12.1297 0 13.9995H1.09375C1.09375 10.7428 3.74328 8.09326 7 8.09326C10.2567 8.09326 12.9062 10.7428 12.9062 13.9995H14C14 12.1297 13.2719 10.3719 11.9498 9.04975ZM7 6.99951C5.37165 6.99951 4.04687 5.67476 4.04687 4.04639C4.04687 2.41801 5.37165 1.09326 7 1.09326C8.62835 1.09326 9.95312 2.41801 9.95312 4.04639C9.95312 5.67476 8.62835 6.99951 7 6.99951Z" fill="#757678"/>
</svg>
