<svg width="28" height="28" viewBox="0 0 28 28" fill="none" xmlns="http://www.w3.org/2000/svg">
<path d="M25.1342 7.58084C25.6673 9.65984 25.6673 13.9998 25.6673 13.9998C25.6673 13.9998 25.6673 18.3398 25.1342 20.4188C24.8378 21.568 23.971 22.4722 22.8732 22.7778C20.8793 23.3332 14.0007 23.3332 14.0007 23.3332C14.0007 23.3332 7.12548 23.3332 5.12815 22.7778C4.02565 22.4675 3.15998 21.5645 2.86715 20.4188C2.33398 18.3398 2.33398 13.9998 2.33398 13.9998C2.33398 13.9998 2.33398 9.65984 2.86715 7.58084C3.16348 6.43167 4.03032 5.5275 5.12815 5.22184C7.12548 4.6665 14.0007 4.6665 14.0007 4.6665C14.0007 4.6665 20.8793 4.6665 22.8732 5.22184C23.9757 5.53217 24.8413 6.43517 25.1342 7.58084ZM11.6673 18.0832L18.6673 13.9998L11.6673 9.9165V18.0832Z" fill="white"/>
</svg>
