<svg aria-hidden="true" style="position: absolute; width: 0; height: 0; overflow: hidden;" version="1.1" xmlns="http://www.w3.org/2000/svg" xmlns:xlink="http://www.w3.org/1999/xlink">
<defs>
<symbol id="icon-logo" viewBox="0 0 33 32">
<path d="M5.108 24.518c-0.056-0.17-0.112-0.349-0.164-0.535l-0.013-0.044c-0.047-0.167-0.088-0.339-0.132-0.527l-0.018-0.077c-0.035-0.165-0.069-0.339-0.1-0.518l-0.014-0.089c-0.027-0.176-0.051-0.351-0.071-0.523l-0.008-0.086c-0.019-0.191-0.034-0.366-0.043-0.539l-0.003-0.060c-0.010-0.204-0.014-0.392-0.014-0.572 0-1.814 0.422-3.551 1.255-5.158 1.14-2.206 3.023-4.031 5.299-5.137l0.859-0.418-0.027 0.051c1.361-0.539 2.803-0.823 4.291-0.841 0.104-0.005 0.23-0.005 0.345 0 1.464 0.020 2.885 0.294 4.228 0.819l-0.042-0.065c-0.058-0.090-0.114-0.179-0.175-0.267-0.018-0.027-0.037-0.053-0.056-0.080l-0.035-0.050c-0.058-0.081-0.106-0.152-0.157-0.221-0.024-0.032-0.048-0.063-0.072-0.095l-0.034-0.044c-0.053-0.071-0.103-0.137-0.156-0.201-0.030-0.039-0.063-0.078-0.095-0.116l-0.021-0.026c-0.053-0.063-0.104-0.126-0.157-0.188-0.035-0.041-0.071-0.080-0.106-0.12l-0.019-0.021c-0.053-0.060-0.108-0.12-0.162-0.179-0.043-0.046-0.088-0.093-0.133-0.138-0.055-0.057-0.111-0.114-0.167-0.17-0.047-0.045-0.091-0.090-0.14-0.135-0.058-0.054-0.116-0.11-0.173-0.162-0.048-0.044-0.096-0.087-0.144-0.131-0.059-0.053-0.119-0.104-0.18-0.155-0.050-0.042-0.098-0.084-0.149-0.125-0.063-0.051-0.125-0.101-0.188-0.15l-0.016-0.013c-0.045-0.035-0.090-0.071-0.135-0.105-0.064-0.050-0.13-0.096-0.196-0.144l-0.029-0.021c-0.042-0.030-0.083-0.060-0.125-0.090-0.066-0.047-0.133-0.092-0.201-0.135l-0.055-0.036c-0.034-0.023-0.069-0.047-0.103-0.069-0.071-0.045-0.144-0.090-0.217-0.134l-0.059-0.036c-0.030-0.020-0.063-0.039-0.093-0.057-0.084-0.050-0.169-0.096-0.254-0.143l-0.051-0.029c-0.024-0.013-0.048-0.027-0.074-0.041-0.127-0.069-0.257-0.135-0.387-0.198-1.565-0.766-3.254-1.155-5.021-1.155-1.756 0-3.437 0.385-4.995 1.141-3.828 1.858-6.206 5.596-6.206 9.758 0 3.817 2.048 7.343 5.374 9.312-0.016-0.039-0.032-0.078-0.048-0.116l-0.024-0.062c-0.074-0.186-0.136-0.358-0.193-0.524l-0.002-0.017z"></path>
<path d="M24.626 27.039c-0.172 0.045-0.348 0.086-0.541 0.126l-0.082 0.018c-0.17 0.035-0.343 0.066-0.531 0.096l-0.095 0.015c-0.181 0.027-0.361 0.050-0.536 0.068l-0.090 0.009c-0.196 0.020-0.377 0.033-0.554 0.042l-0.063 0.003c-0.213 0.011-0.406 0.015-0.589 0.015-1.873 0-3.663-0.412-5.32-1.224-2.271-1.108-4.149-2.938-5.286-5.149l-0.419-0.817 0.055 0.027c-0.56-1.329-0.854-2.732-0.873-4.177-0.002-0.048-0.003-0.107-0.003-0.164s0-0.116 0.003-0.173c0.019-1.421 0.303-2.803 0.844-4.109l-0.003 0.002c-0.108 0.065-0.213 0.129-0.318 0.197-0.024 0.017-0.048 0.032-0.074 0.048l-0.050 0.035c-0.079 0.053-0.157 0.104-0.236 0.158-0.030 0.021-0.061 0.044-0.090 0.065l-0.063 0.047c-0.066 0.047-0.132 0.095-0.196 0.143-0.034 0.026-0.067 0.053-0.101 0.078l-0.042 0.033c-0.069 0.054-0.133 0.104-0.196 0.155-0.038 0.032-0.077 0.065-0.116 0.098l-0.027 0.022c-0.063 0.053-0.124 0.105-0.185 0.159-0.048 0.042-0.095 0.084-0.141 0.128-0.059 0.054-0.119 0.108-0.177 0.164-0.046 0.044-0.091 0.089-0.136 0.134-0.056 0.056-0.112 0.113-0.169 0.17-0.045 0.047-0.088 0.092-0.132 0.138-0.055 0.059-0.109 0.117-0.162 0.176-0.043 0.048-0.085 0.095-0.127 0.143-0.053 0.060-0.104 0.122-0.154 0.183-0.043 0.051-0.082 0.099-0.12 0.147-0.051 0.063-0.099 0.128-0.149 0.191l-0.026 0.035c-0.029 0.037-0.058 0.077-0.087 0.114-0.048 0.065-0.095 0.131-0.141 0.197l-0.034 0.050c-0.024 0.035-0.048 0.069-0.072 0.104-0.045 0.066-0.088 0.132-0.13 0.2l-0.045 0.068c-0.019 0.030-0.040 0.060-0.059 0.092-0.048 0.078-0.096 0.159-0.143 0.239l-0.034 0.059c-0.014 0.024-0.029 0.047-0.042 0.071-0.071 0.125-0.138 0.249-0.204 0.375-0.79 1.525-1.191 3.171-1.191 4.895 0 1.712 0.396 3.351 1.178 4.869 1.91 3.72 5.751 6.030 10.023 6.030 3.928 0 7.557-1.999 9.578-5.245-0.037 0.015-0.074 0.029-0.111 0.042l-0.074 0.027c-0.188 0.069-0.361 0.131-0.53 0.185l-0.019 0.006c-0.191 0.060-0.371 0.113-0.551 0.161l-0.047 0.012z"></path>
<path d="M27.643 7.336c0.056 0.17 0.112 0.347 0.164 0.53l0.013 0.047c0.045 0.164 0.088 0.335 0.13 0.524l0.018 0.077c0.035 0.164 0.069 0.338 0.1 0.518l0.014 0.089c0.027 0.176 0.051 0.351 0.071 0.523l0.008 0.084c0.019 0.191 0.034 0.367 0.043 0.539l0.003 0.062c0.010 0.204 0.014 0.391 0.014 0.572 0 1.816-0.422 3.551-1.255 5.158-1.14 2.206-3.023 4.031-5.299 5.137l-0.857 0.416 0.026-0.051c-1.363 0.541-2.804 0.823-4.294 0.843-0.106 0.004-0.231 0.004-0.348 0-1.461-0.018-2.881-0.294-4.225-0.819 0.008 0.012 0.016 0.024 0.022 0.036l0.030 0.047c0.053 0.084 0.106 0.167 0.162 0.249 0.021 0.030 0.042 0.059 0.063 0.089l0.056 0.080c0.042 0.060 0.085 0.122 0.128 0.18 0.026 0.035 0.051 0.069 0.077 0.102l0.045 0.059c0.046 0.060 0.091 0.12 0.14 0.18 0.030 0.038 0.061 0.075 0.092 0.111l0.030 0.036c0.051 0.062 0.101 0.122 0.153 0.182 0.038 0.044 0.077 0.087 0.116 0.131l0.014 0.017c0.053 0.059 0.104 0.116 0.157 0.173 0.045 0.048 0.091 0.095 0.136 0.143 0.053 0.056 0.108 0.111 0.164 0.165 0.047 0.047 0.095 0.093 0.143 0.138 0.056 0.054 0.112 0.107 0.17 0.159 0.048 0.045 0.098 0.089 0.148 0.134 0.058 0.051 0.117 0.102 0.177 0.153 0.050 0.042 0.101 0.086 0.152 0.128 0.061 0.050 0.122 0.098 0.183 0.147l0.013 0.011c0.046 0.038 0.095 0.075 0.143 0.111 0.063 0.048 0.127 0.095 0.191 0.141l0.034 0.024c0.042 0.030 0.082 0.060 0.124 0.089 0.059 0.042 0.122 0.083 0.183 0.123l0.067 0.045c0.037 0.024 0.072 0.050 0.109 0.072 0.069 0.044 0.138 0.087 0.209 0.129l0.058 0.036c0.034 0.021 0.067 0.042 0.103 0.063 0.072 0.042 0.144 0.083 0.217 0.123l0.083 0.047c0.026 0.015 0.051 0.030 0.077 0.044 0.119 0.065 0.239 0.126 0.361 0.186l0.016 0.008c0.982 0.482 2.015 0.816 3.076 0.996 0.636 0.108 1.294 0.164 1.953 0.164 1.758 0 3.438-0.384 4.995-1.142 3.828-1.858 6.206-5.596 6.206-9.758 0-3.817-2.048-7.343-5.374-9.312 0.016 0.039 0.032 0.078 0.047 0.116l0.026 0.063c0.074 0.185 0.136 0.356 0.193 0.523l0.008 0.015z"></path>
<path d="M8.747 4.668c0.172-0.035 0.352-0.068 0.535-0.096l0.091-0.014c0.18-0.027 0.361-0.050 0.538-0.069l0.088-0.009c0.196-0.020 0.377-0.033 0.554-0.042l0.063-0.003c0.212-0.011 0.405-0.015 0.589-0.015 1.873 0 3.663 0.412 5.32 1.224 2.271 1.11 4.149 2.938 5.286 5.149l0.419 0.814-0.055-0.027c0.562 1.329 0.856 2.734 0.875 4.179 0.003 0.048 0.003 0.105 0.003 0.164 0 0.057 0 0.116-0.003 0.173-0.019 1.421-0.303 2.803-0.844 4.109 0.109-0.065 0.217-0.131 0.323-0.198 0.022-0.015 0.045-0.030 0.069-0.045l0.048-0.033c0.082-0.054 0.162-0.107 0.242-0.162 0.029-0.021 0.059-0.042 0.088-0.063l0.061-0.045c0.067-0.048 0.133-0.096 0.199-0.146 0.035-0.027 0.069-0.053 0.103-0.080l0.038-0.030c0.066-0.051 0.133-0.104 0.198-0.156 0.038-0.032 0.075-0.063 0.112-0.095l0.029-0.026c0.063-0.053 0.125-0.107 0.186-0.161 0.042-0.036 0.082-0.074 0.124-0.111l0.018-0.015c0.059-0.054 0.119-0.11 0.177-0.165 0.047-0.044 0.092-0.089 0.136-0.134 0.058-0.056 0.114-0.113 0.169-0.17 0.045-0.047 0.088-0.092 0.133-0.138 0.055-0.059 0.108-0.117 0.161-0.176 0.043-0.048 0.085-0.095 0.127-0.143 0.053-0.060 0.103-0.122 0.154-0.183 0.040-0.050 0.082-0.098 0.12-0.147 0.050-0.063 0.1-0.126 0.148-0.191l0.024-0.030c0.030-0.039 0.061-0.080 0.090-0.119 0.048-0.066 0.096-0.132 0.143-0.2l0.030-0.042c0.026-0.036 0.050-0.071 0.074-0.107 0.047-0.068 0.091-0.137 0.135-0.206l0.037-0.057c0.021-0.032 0.042-0.063 0.061-0.095 0.050-0.080 0.096-0.159 0.143-0.24l0.034-0.057c0.014-0.024 0.029-0.047 0.042-0.071 0.071-0.123 0.138-0.249 0.204-0.376 0.79-1.525 1.191-3.171 1.191-4.895 0-1.712-0.396-3.351-1.178-4.869-1.91-3.72-5.751-6.030-10.023-6.030-3.928 0-7.557 1.999-9.578 5.245 0.037-0.015 0.075-0.029 0.112-0.044l0.067-0.026c0.191-0.071 0.366-0.132 0.536-0.186l0.016-0.005c0.188-0.059 0.371-0.113 0.557-0.162l0.042-0.012c0.17-0.045 0.348-0.086 0.544-0.128l0.077-0.015z"></path>
</symbol>
<symbol id="icon-calendar" viewBox="0 0 32 32">
<path fill="none" stroke="#5459ff" style="stroke: var(--color1, #5459ff)" stroke-linejoin="round" stroke-linecap="round" stroke-miterlimit="4" stroke-width="2" d="M26 5h-20c-0.552 0-1 0.448-1 1v20c0 0.552 0.448 1 1 1h20c0.552 0 1-0.448 1-1v-20c0-0.552-0.448-1-1-1z"></path>
<path fill="none" stroke="#5459ff" style="stroke: var(--color1, #5459ff)" stroke-linejoin="round" stroke-linecap="round" stroke-miterlimit="4" stroke-width="2" d="M22 2.5v2.5"></path>
<path fill="none" stroke="#5459ff" style="stroke: var(--color1, #5459ff)" stroke-linejoin="round" stroke-linecap="round" stroke-miterlimit="4" stroke-width="2" d="M10 2.5v2.5"></path>
<path fill="none" stroke="#5459ff" style="stroke: var(--color1, #5459ff)" stroke-linejoin="round" stroke-linecap="round" stroke-miterlimit="4" stroke-width="2" d="M5 11h22"></path>
</symbol>
<symbol id="icon-linkedin" viewBox="0 0 31 32">
<path fill="#fff" style="fill: var(--color2, #fff)" d="M24.489 4.4c0.684 0 1.339 0.272 1.823 0.755s0.755 1.139 0.755 1.823v18.044c0 0.684-0.272 1.339-0.755 1.823s-1.139 0.755-1.823 0.755h-18.044c-0.684 0-1.339-0.272-1.823-0.755s-0.755-1.139-0.755-1.823v-18.044c0-0.684 0.272-1.339 0.755-1.823s1.139-0.755 1.823-0.755h18.044zM23.844 24.378v-6.831c0-1.114-0.443-2.183-1.231-2.971s-1.857-1.231-2.971-1.231c-1.096 0-2.372 0.67-2.99 1.676v-1.431h-3.596v10.788h3.596v-6.354c0-0.992 0.799-1.804 1.792-1.804 0.479 0 0.938 0.19 1.276 0.529s0.529 0.797 0.529 1.276v6.354h3.596zM8.868 11.566c0.574 0 1.125-0.228 1.531-0.634s0.634-0.957 0.634-1.531c0-1.199-0.967-2.178-2.165-2.178-0.578 0-1.132 0.229-1.54 0.638s-0.638 0.963-0.638 1.54c0 1.199 0.98 2.165 2.178 2.165zM10.659 24.378v-10.788h-3.57v10.788h3.57z"></path>
</symbol>
<symbol id="icon-youtube" viewBox="0 0 32 32">
<path fill="#fff" style="fill: var(--color2, #fff)" d="M28.725 8.664c0.609 2.376 0.609 7.336 0.609 7.336s0 4.96-0.609 7.336c-0.339 1.313-1.329 2.347-2.584 2.696-2.279 0.635-10.14 0.635-10.14 0.635s-7.857 0-10.14-0.635c-1.26-0.355-2.249-1.387-2.584-2.696-0.609-2.376-0.609-7.336-0.609-7.336s0-4.96 0.609-7.336c0.339-1.313 1.329-2.347 2.584-2.696 2.283-0.635 10.14-0.635 10.14-0.635s7.861 0 10.14 0.635c1.26 0.355 2.249 1.387 2.584 2.696zM13.334 20.666l8-4.667-8-4.667v9.333z"></path>
</symbol>
<symbol id="icon-local" viewBox="0 0 26 32">
<path fill="none" stroke="#5459ff" style="stroke: var(--color1, #5459ff)" stroke-linejoin="round" stroke-linecap="round" stroke-miterlimit="4" stroke-width="2.2857" d="M24.381 12.571c0 10.286-11.429 18.286-11.429 18.286s-11.429-8-11.429-18.286c0-3.031 1.204-5.938 3.347-8.081s5.050-3.347 8.081-3.347c3.031 0 5.938 1.204 8.081 3.347s3.347 5.050 3.347 8.081v0z"></path>
</symbol>
<symbol id="icon-phone" viewBox="0 0 32 32">
<path fill="none" stroke="#5459ff" style="stroke: var(--color1, #5459ff)" stroke-linejoin="round" stroke-linecap="round" stroke-miterlimit="4" stroke-width="2.5263" d="M9.553 16.337c1.3 2.684 3.47 4.849 6.158 6.142 0.198 0.094 0.418 0.134 0.636 0.118s0.429-0.090 0.611-0.213l3.947-2.637c0.174-0.118 0.376-0.19 0.586-0.21s0.421 0.015 0.614 0.099l7.389 3.174c0.253 0.105 0.464 0.29 0.601 0.527s0.192 0.512 0.157 0.783c-0.234 1.828-1.126 3.508-2.51 4.726s-3.163 1.89-5.006 1.89c-5.695 0-11.157-2.262-15.184-6.289s-6.29-9.489-6.29-15.184c0-1.843 0.672-3.623 1.89-5.006s2.898-2.276 4.726-2.51c0.271-0.035 0.547 0.020 0.783 0.157s0.422 0.348 0.527 0.601l3.174 7.405c0.083 0.19 0.117 0.397 0.101 0.604s-0.084 0.406-0.195 0.58l-2.637 4.011c-0.117 0.181-0.186 0.39-0.2 0.606s0.028 0.431 0.121 0.626v0z"></path>
</symbol>
<symbol id="icon-burger" viewBox="0 0 48 32">
<path fill="#5461ff" style="fill: var(--color3, #5461ff)" d="M2.667 32h42.667c1.467 0 2.667-1.2 2.667-2.667s-1.2-2.667-2.667-2.667h-42.667c-1.467 0-2.667 1.2-2.667 2.667s1.2 2.667 2.667 2.667zM2.667 18.667h42.667c1.467 0 2.667-1.2 2.667-2.667s-1.2-2.667-2.667-2.667h-42.667c-1.467 0-2.667 1.2-2.667 2.667s1.2 2.667 2.667 2.667zM0 2.667c0 1.467 1.2 2.667 2.667 2.667h42.667c1.467 0 2.667-1.2 2.667-2.667s-1.2-2.667-2.667-2.667h-42.667c-1.467 0-2.667 1.2-2.667 2.667z"></path>
</symbol>
<symbol id="icon-man" viewBox="0 0 32 32">
<path d="M27.314 20.686c-1.743-1.743-3.817-3.033-6.080-3.814 2.424-1.669 4.016-4.463 4.016-7.623 0-5.1-4.15-9.25-9.25-9.25s-9.25 4.15-9.25 9.25c0 3.159 1.592 5.953 4.016 7.623-2.263 0.781-4.337 2.071-6.080 3.814-3.022 3.022-4.686 7.040-4.686 11.314h2.5c0-7.444 6.056-13.5 13.5-13.5s13.5 6.056 13.5 13.5h2.5c0-4.274-1.664-8.292-4.686-11.314zM16 16c-3.722 0-6.75-3.028-6.75-6.75s3.028-6.75 6.75-6.75c3.722 0 6.75 3.028 6.75 6.75s-3.028 6.75-6.75 6.75z"></path>
</symbol>
<symbol id="icon-imail" viewBox="0 0 45 32">
<path d="M40.862 0.654h-36.925c-2.171 0-3.938 1.766-3.938 3.938v22.818c0 2.171 1.766 3.938 3.938 3.938h36.925c2.171 0 3.938-1.766 3.938-3.938v-22.818c0-2.171-1.766-3.938-3.938-3.938zM40.348 3.279l-16.386 13.645c-0.905 0.754-2.219 0.754-3.124 0l-16.386-13.645h35.897zM2.625 5.174l12.923 10.761-12.923 8.601v-19.362zM40.862 28.722h-36.925c-0.634 0-1.165-0.452-1.286-1.051l15.001-9.984 1.505 1.254c0.939 0.782 2.091 1.173 3.242 1.173s2.303-0.391 3.242-1.173l1.505-1.254 15.001 9.984c-0.122 0.599-0.652 1.051-1.286 1.051zM42.175 24.535l-12.923-8.601 12.923-10.761v19.362z"></path>
</symbol>
<symbol id="icon-flag" viewBox="0 0 45 32">
<path fill="#0250c5" style="fill: var(--color4, #0250c5)" d="M0 1.067h44.8v14.933h-44.8v-14.933z"></path>
<path fill="#fed700" style="fill: var(--color5, #fed700)" d="M0 16.001h44.8v14.933h-44.8v-14.933z"></path>
</symbol>
<symbol id="icon-idea" viewBox="0 0 32 32">
<path fill="#fff" style="fill: var(--color2, #fff)" d="M16 0c8.837 0 16 7.163 16 16s-7.163 16-16 16c-8.837 0-16-7.163-16-16s7.163-16 16-16z"></path>
<path fill="none" stroke="#5461ff" style="stroke: var(--color3, #5461ff)" stroke-linejoin="miter" stroke-linecap="butt" stroke-miterlimit="4" stroke-width="0.64" d="M16 0.32c8.66 0 15.68 7.020 15.68 15.68s-7.020 15.68-15.68 15.68c-8.66 0-15.68-7.020-15.68-15.68s7.020-15.68 15.68-15.68z"></path>
<path fill="#5461ff" style="fill: var(--color3, #5461ff)" d="M24.727 2c0 0.904-0.733 1.636-1.636 1.636s-1.636-0.733-1.636-1.636c0-0.904 0.733-1.636 1.636-1.636s1.636 0.733 1.636 1.636z"></path>
<path fill="none" stroke="#181b38" style="stroke: var(--color6, #181b38)" stroke-linejoin="round" stroke-linecap="round" stroke-miterlimit="4" stroke-width="0.7273" d="M13.614 22.205h4.773"></path>
<path fill="none" stroke="#181b38" style="stroke: var(--color6, #181b38)" stroke-linejoin="round" stroke-linecap="round" stroke-miterlimit="4" stroke-width="0.7273" d="M16 20.295v-3.341"></path>
<path fill="none" stroke="#181b38" style="stroke: var(--color6, #181b38)" stroke-linejoin="round" stroke-linecap="round" stroke-miterlimit="4" stroke-width="0.7273" d="M14.091 15.045l1.909 1.909 1.909-1.909"></path>
<path fill="none" stroke="#181b38" style="stroke: var(--color6, #181b38)" stroke-linejoin="round" stroke-linecap="round" stroke-miterlimit="4" stroke-width="0.7273" d="M13.059 18.327c-0.568-0.442-1.028-1.007-1.346-1.653s-0.483-1.356-0.486-2.076c-0.012-2.589 2.070-4.743 4.659-4.803 1.002-0.024 1.986 0.269 2.813 0.836s1.454 1.38 1.792 2.323c0.339 0.943 0.372 1.97 0.095 2.933s-0.851 1.815-1.639 2.434c-0.174 0.135-0.315 0.307-0.412 0.505s-0.148 0.415-0.148 0.635v0.358c0 0.127-0.050 0.248-0.14 0.337s-0.211 0.14-0.337 0.14h-3.818c-0.127 0-0.248-0.050-0.338-0.14s-0.14-0.211-0.14-0.337v-0.358c-0.002-0.218-0.052-0.434-0.148-0.63s-0.235-0.368-0.407-0.504v0z"></path>
</symbol>
<symbol id="icon-laptop" viewBox="0 0 32 32">
<path fill="#fff" style="fill: var(--color2, #fff)" d="M16 0c8.837 0 16 7.163 16 16s-7.163 16-16 16c-8.837 0-16-7.163-16-16s7.163-16 16-16z"></path>
<path fill="none" stroke="#5461ff" style="stroke: var(--color3, #5461ff)" stroke-linejoin="miter" stroke-linecap="butt" stroke-miterlimit="4" stroke-width="0.64" d="M16 0.32c8.66 0 15.68 7.020 15.68 15.68s-7.020 15.68-15.68 15.68c-8.66 0-15.68-7.020-15.68-15.68s7.020-15.68 15.68-15.68z"></path>
<path fill="#5461ff" style="fill: var(--color3, #5461ff)" d="M32 10c0 0.904-0.733 1.636-1.636 1.636s-1.636-0.733-1.636-1.636c0-0.904 0.733-1.636 1.636-1.636s1.636 0.733 1.636 1.636z"></path>
<path fill="none" stroke="#181b38" style="stroke: var(--color6, #181b38)" stroke-linejoin="round" stroke-linecap="round" stroke-miterlimit="4" stroke-width="0.7273" d="M10.5 19v-6.5c0-0.265 0.105-0.52 0.293-0.707s0.442-0.293 0.707-0.293h9c0.265 0 0.52 0.105 0.707 0.293s0.293 0.442 0.293 0.707v6.5"></path>
<path fill="none" stroke="#181b38" style="stroke: var(--color6, #181b38)" stroke-linejoin="round" stroke-linecap="round" stroke-miterlimit="4" stroke-width="0.7273" d="M9.5 19h13v1c0 0.265-0.105 0.52-0.293 0.707s-0.442 0.293-0.707 0.293h-11c-0.265 0-0.52-0.105-0.707-0.293s-0.293-0.442-0.293-0.707v-1z"></path>
<path fill="none" stroke="#181b38" style="stroke: var(--color6, #181b38)" stroke-linejoin="round" stroke-linecap="round" stroke-miterlimit="4" stroke-width="0.7273" d="M17 13.5h-2"></path>
</symbol>
<symbol id="icon-advantage" viewBox="0 0 32 32">
<path fill="#fff" style="fill: var(--color2, #fff)" d="M16.16 0c8.837 0 16 7.163 16 16s-7.163 16-16 16c-8.837 0-16-7.163-16-16s7.163-16 16-16z"></path>
<path fill="none" stroke="#5461ff" style="stroke: var(--color3, #5461ff)" stroke-linejoin="miter" stroke-linecap="butt" stroke-miterlimit="4" stroke-width="0.64" d="M16.16 0.32c8.66 0 15.68 7.020 15.68 15.68s-7.020 15.68-15.68 15.68c-8.66 0-15.68-7.020-15.68-15.68s7.020-15.68 15.68-15.68z"></path>
<path fill="#5461ff" style="fill: var(--color3, #5461ff)" d="M28.887 27.091c0 0.904-0.733 1.636-1.636 1.636s-1.636-0.733-1.636-1.636c0-0.904 0.733-1.636 1.636-1.636s1.636 0.733 1.636 1.636z"></path>
<path fill="none" stroke="#181b38" style="stroke: var(--color6, #181b38)" stroke-linejoin="round" stroke-linecap="round" stroke-miterlimit="4" stroke-width="0.7264" d="M10.88 15.202v-3.522c0-0.127 0.051-0.249 0.141-0.339s0.212-0.141 0.339-0.141h9.6c0.127 0 0.249 0.051 0.339 0.141s0.141 0.212 0.141 0.339v3.522c0 5.040-4.278 6.708-5.13 6.99-0.097 0.036-0.203 0.036-0.3 0-0.852-0.282-5.13-1.95-5.13-6.99z"></path>
<path fill="none" stroke="#181b38" style="stroke: var(--color6, #181b38)" stroke-linejoin="round" stroke-linecap="round" stroke-miterlimit="4" stroke-width="0.7264" d="M18.8 14.56l-3.522 3.36-1.758-1.68"></path>
</symbol>
<symbol id="icon-bag" viewBox="0 0 32 32">
<path fill="none" stroke="#757678" style="stroke: var(--color7, #757678)" stroke-linejoin="round" stroke-linecap="round" stroke-miterlimit="4" stroke-width="1.5059" d="M27 9h-22c-0.552 0-1 0.448-1 1v16c0 0.552 0.448 1 1 1h22c0.552 0 1-0.448 1-1v-16c0-0.552-0.448-1-1-1z"></path>
<path fill="none" stroke="#757678" style="stroke: var(--color7, #757678)" stroke-linejoin="round" stroke-linecap="round" stroke-miterlimit="4" stroke-width="1.5059" d="M21 9v-2c0-0.53-0.211-1.039-0.586-1.414s-0.884-0.586-1.414-0.586h-6c-0.53 0-1.039 0.211-1.414 0.586s-0.586 0.884-0.586 1.414v2"></path>
<path fill="none" stroke="#757678" style="stroke: var(--color7, #757678)" stroke-linejoin="round" stroke-linecap="round" stroke-miterlimit="4" stroke-width="1.5059" d="M28 15.788c-3.647 2.109-7.787 3.218-12 3.212-4.214 0.011-8.355-1.098-12-3.212"></path>
<path fill="none" stroke="#757678" style="stroke: var(--color7, #757678)" stroke-linejoin="round" stroke-linecap="round" stroke-miterlimit="4" stroke-width="1.5059" d="M14.5 15h3"></path>
</symbol>
<symbol id="icon-folder" viewBox="0 0 32 32">
<path fill="none" stroke="#757678" style="stroke: var(--color7, #757678)" stroke-linejoin="round" stroke-linecap="round" stroke-miterlimit="4" stroke-width="1.5059" d="M26 27v-22c0-0.552-0.448-1-1-1h-18c-0.552 0-1 0.448-1 1v22c0 0.552 0.448 1 1 1h18c0.552 0 1-0.448 1-1z"></path>
<path fill="none" stroke="#757678" style="stroke: var(--color7, #757678)" stroke-linejoin="round" stroke-linecap="round" stroke-miterlimit="4" stroke-width="1.5059" d="M12 8h8"></path>
</symbol>
<symbol id="icon-arow" viewBox="0 0 51 32">
<path stroke-linejoin="round" stroke-linecap="round" stroke-miterlimit="4" stroke-width="9.6" d="M46.281 6.4l-19.941 18-19.941-18"></path>
</symbol>
<symbol id="icon-Vector-6" viewBox="0 0 32 32">
<path fill="none" stroke="#fff" style="stroke: var(--color2, #fff)" stroke-linejoin="miter" stroke-linecap="round" stroke-miterlimit="4" stroke-width="4.5714" d="M29.714 29.714l-27.429-27.429M29.714 2.286l-27.429 27.429"></path>
</symbol>
</defs>
</svg>
